<svg xmlns="http://www.w3.org/2000/svg" width="295" height="46" viewBox="0 0 295 46" fill="none">
  <path d="M18.75 36.281 Q13.066 36.281 9.59 35.07 Q6.113 33.84 4.297 31.711 Q2.48 29.563 1.855 26.77 L14.336 26.77 Q15.723 28.762 18.75 28.762 Q21.777 28.762 23.164 26.77 Q23.281 26.574 23.281 26.418 Q23.281 25.891 21.875 25.637 Q20.488 25.363 17.715 25.227 Q14.219 25.07 10.371 24.484 Q1.797 23.156 1.797 17.59 Q1.797 17.121 1.855 16.594 Q2.48 13.801 4.297 11.672 Q6.113 9.523 9.59 8.313 Q13.066 7.082 18.75 7.082 Q24.434 7.082 27.91 8.313 Q31.387 9.523 33.203 11.672 Q35.02 13.801 35.645 16.594 L23.164 16.594 Q21.777 14.602 18.75 14.602 Q15.723 14.602 14.336 16.594 Q14.238 16.75 14.238 16.887 Q14.238 17.355 15.566 17.59 Q16.914 17.805 19.512 17.961 Q22.129 18.117 25.078 18.469 Q28.027 18.82 30.586 19.699 Q33.164 20.559 34.609 22.258 Q35.742 23.566 35.742 25.578 Q35.742 26.145 35.645 26.77 Q35.02 29.563 33.203 31.711 Q31.387 33.84 27.91 35.07 Q24.434 36.281 18.75 36.281 Z" fill="#FFFFFF"/>
  <path d="M74.18 35.676 L40.43 35.676 L40.43 7.648 L72.637 7.648 L72.637 14.582 L52.188 14.582 L52.188 18.977 L69.473 18.977 L69.473 24.367 L52.188 24.367 L52.188 28.742 L74.18 28.742 L74.18 35.676 Z" fill="#FFFFFF"/>
  <path d="M117.129 35.676 L106.016 35.676 Q105.254 34.621 104.941 32.98 Q104.668 31.711 104.121 30.5 Q103.574 29.27 102.227 28.469 Q100.898 27.648 98.262 27.59 L90.625 27.59 L90.625 35.676 L78.867 35.676 L78.867 7.648 L97.988 7.648 Q104.844 7.648 109.043 8.684 Q113.262 9.699 115.195 11.906 Q117.129 14.094 117.129 17.629 Q117.129 20.578 115.781 22.59 Q114.453 24.602 111.563 25.773 Q114.355 26.926 115.176 28.547 Q116.016 30.148 116.211 32.082 Q116.406 33.801 117.129 35.676 Z M90.625 20.676 L97.344 20.656 Q100.156 20.656 101.777 20.402 Q103.398 20.148 104.16 19.719 Q104.941 19.27 105.156 18.742 Q105.371 18.195 105.371 17.629 Q105.371 17.063 105.156 16.516 Q104.941 15.969 104.16 15.539 Q103.398 15.09 101.777 14.836 Q100.156 14.582 97.344 14.582 L90.625 14.582 L90.625 20.676 Z" fill="#FFFFFF"/>
  <path d="M143.281 35.676 L132.363 35.676 L116.66 7.668 L128.574 7.668 L137.832 27.688 L147.07 7.668 L158.984 7.668 L143.281 35.676 Z" fill="#FFFFFF"/>
  <path d="M174.18 35.676 L162.422 35.676 L162.422 7.648 L174.18 7.648 L174.18 35.676 Z" fill="#FFFFFF"/>
  <path d="M198.496 36.281 Q188.105 36.281 183.203 32.004 Q178.867 28.234 178.867 21.691 Q178.867 15.148 183.203 11.359 Q188.105 7.102 198.496 7.102 Q204.59 7.102 208.574 8.508 Q212.559 9.895 214.766 12.316 Q216.973 14.738 217.695 17.863 L205.332 17.863 Q203.477 14.602 198.496 14.602 Q194.238 14.602 192.227 17.063 Q190.625 19.016 190.625 21.691 Q190.625 24.367 192.227 26.32 Q194.238 28.781 198.496 28.781 Q203.477 28.781 205.332 25.5 L217.695 25.5 Q216.973 28.645 214.766 31.066 Q212.559 33.488 208.574 34.895 Q204.59 36.281 198.496 36.281 Z" fill="#FFFFFF"/>
  <path d="M256.133 35.676 L222.383 35.676 L222.383 7.648 L254.59 7.648 L254.59 14.582 L234.141 14.582 L234.141 18.977 L251.426 18.977 L251.426 24.367 L234.141 24.367 L234.141 28.742 L256.133 28.742 L256.133 35.676 Z" fill="#FFFFFF"/>
  <path d="M276.211 36.281 Q270.527 36.281 267.051 35.07 Q263.574 33.84 261.758 31.711 Q259.941 29.563 259.316 26.77 L271.797 26.77 Q273.184 28.762 276.211 28.762 Q279.238 28.762 280.625 26.77 Q280.742 26.574 280.742 26.418 Q280.742 25.891 279.336 25.637 Q277.949 25.363 275.176 25.227 Q271.68 25.07 267.832 24.484 Q259.258 23.156 259.258 17.59 Q259.258 17.121 259.316 16.594 Q259.941 13.801 261.758 11.672 Q263.574 9.523 267.051 8.313 Q270.527 7.082 276.211 7.082 Q281.895 7.082 285.371 8.313 Q288.848 9.523 290.664 11.672 Q292.48 13.801 293.105 16.594 L280.625 16.594 Q279.238 14.602 276.211 14.602 Q273.184 14.602 271.797 16.594 Q271.699 16.75 271.699 16.887 Q271.699 17.355 273.027 17.59 Q274.375 17.805 276.973 17.961 Q279.59 18.117 282.539 18.469 Q285.488 18.82 288.047 19.699 Q290.625 20.559 292.07 22.258 Q293.203 23.566 293.203 25.578 Q293.203 26.145 293.105 26.77 Q292.48 29.563 290.664 31.711 Q288.848 33.84 285.371 35.07 Q281.895 36.281 276.211 36.281 Z" fill="#FFFFFF"/>
</svg>
